<svg xmlns="http://www.w3.org/2000/svg" width="38.5" height="38.5" viewBox="0 0 38.5 38.5">
    <defs>
        <style>
            .cls-1{fill:#0b0b0b;stroke:#fff;stroke-width:.5px}
        </style>
    </defs>
    <g id="photo" transform="translate(.25 .25)">
        <g id="Group_804" data-name="Group 804">
            <path id="Path_253" d="M0 33.993A4.011 4.011 0 0 0 4.007 38h29.986A4.011 4.011 0 0 0 38 33.993V4.007A4.011 4.011 0 0 0 33.993 0H4.007A4.011 4.011 0 0 0 0 4.007zm33.993 2.1H4.007a2.111 2.111 0 0 1-2.1-2.1v-5.008l7.201-7.205 6.157 6.157a.947.947 0 0 0 1.343 0l11.119-11.119 8.37 8.37v8.805a2.111 2.111 0 0 1-2.104 2.107zM4.007 1.9h29.986a2.111 2.111 0 0 1 2.1 2.1v18.494L28.4 14.8a.947.947 0 0 0-1.343 0L15.933 25.918l-6.157-6.157a.947.947 0 0 0-1.343 0L1.9 26.291V4.007A2.111 2.111 0 0 1 4.007 1.9z" class="cls-1" data-name="Path 253"/>
            <path id="Path_254" d="M95.179 83.059a5.779 5.779 0 1 0-5.779-5.78 5.786 5.786 0 0 0 5.779 5.78zm0-9.286a3.507 3.507 0 1 1-3.507 3.507 3.51 3.51 0 0 1 3.507-3.507z" class="cls-1" data-name="Path 254" transform="translate(-82.92 -64.867)"/>
        </g>
    </g>
</svg>
