<svg xmlns="http://www.w3.org/2000/svg" width="38.4" height="38.4" viewBox="0 0 38.4 38.4">
    <defs>
        <style>
            .cls-1{fill:#ffffff;stroke:#fff;stroke-width:.4px}
        </style>
    </defs>
    <path id="Path_255" d="M24 5a19 19 0 1 0 19 19A19.029 19.029 0 0 0 24 5zm0 36.311A17.311 17.311 0 1 1 41.311 24 17.335 17.335 0 0 1 24 41.311zm8.909-18.029L19.4 14.838a.81.81 0 0 0-1.267.676V32.4a.817.817 0 0 0 .422.718.713.713 0 0 0 .422.127.962.962 0 0 0 .464-.127l13.511-8.444a.83.83 0 0 0 .38-.718.906.906 0 0 0-.423-.674zm-13.131 7.642V17.076L30.84 24z" class="cls-1" data-name="Path 255" transform="translate(-4.8 -4.8)"/>
</svg>
