<svg xmlns="http://www.w3.org/2000/svg" width="38.646" height="40.5" viewBox="0 0 38.646 40.5">
    <defs>
        <style>
            .cls-1{fill:#0b0b0b;stroke:#fff;stroke-width:1.2px}
        </style>
    </defs>
    <g id="Group_805" data-name="Group 805" transform="translate(-936.382 -1243.4)">
        <g id="Group_724" data-name="Group 724" transform="translate(937 1244)">
            <path id="Path_40" d="M18.711 0a18.7 18.7 0 0 0-17.45 11.486A17.431 17.431 0 0 0 6.17 31.229a1.324 1.324 0 0 0 1.792-.108 1.2 1.2 0 0 0-.071-1.72 15.041 15.041 0 0 1-4.233-17.034 16.136 16.136 0 0 1 15.058-9.911 16.136 16.136 0 0 1 15.058 9.911A15.041 15.041 0 0 1 29.541 29.4a1.2 1.2 0 0 0-.071 1.72 1.324 1.324 0 0 0 1.792.108 17.43 17.43 0 0 0 4.908-19.745A18.7 18.7 0 0 0 18.711 0z" class="cls-1" data-name="Path 40" transform="translate(-.011)"/>
            <path id="Path_41" d="M26 16.75c-5.736.006-10.384 4.963-10.39 11.08a11.419 11.419 0 0 0 2.048 6.595 1.2 1.2 0 0 0 1.748.266 1.391 1.391 0 0 0 .25-1.864 8.66 8.66 0 0 1-1.548-5A8.167 8.167 0 0 1 26 19.413a8.167 8.167 0 0 1 7.892 8.416 8.692 8.692 0 0 1-1.553 5 1.391 1.391 0 0 0 .25 1.864 1.2 1.2 0 0 0 1.748-.266 11.459 11.459 0 0 0 2.043-6.589c0-6.117-4.644-11.079-10.38-11.091z" class="cls-1" data-name="Path 41" transform="translate(-7.301 -8.796)"/>
            <ellipse id="Ellipse_28" cx="4.299" cy="4.299" class="cls-1" data-name="Ellipse 28" rx="4.299" ry="4.299" transform="translate(14.406 13.887)"/>
            <path id="Path_42" d="M33.478 50.86h-1.8a3.468 3.468 0 0 0-3.463 3.462 1.321 1.321 0 0 0 .059.389l3.02 9.983a1.332 1.332 0 0 0 2.546 0l3.031-9.983a1.331 1.331 0 0 0 .059-.389 3.468 3.468 0 0 0-3.452-3.462z" class="cls-1" data-name="Path 42" transform="translate(-13.883 -26.335)"/>
        </g>
    </g>
</svg>
