<svg xmlns="http://www.w3.org/2000/svg" width="17" height="17" viewBox="0 0 17 17">
    <defs>
        <style>
            .cls-1{fill:#b7b7b7}
        </style>
    </defs>
    <g id="setting" transform="translate(-2 -2)">
        <path id="Path_14" d="M17.406 8.249h-.525a.386.386 0 0 1-.357-.261.375.375 0 0 1 .079-.41l.37-.37a1.593 1.593 0 0 0 0-2.253l-.927-.927a1.6 1.6 0 0 0-2.254 0l-.369.369a.388.388 0 0 1-.438.068.374.374 0 0 1-.235-.346v-.525A1.6 1.6 0 0 0 11.158 2H9.842a1.6 1.6 0 0 0-1.593 1.594v.525a.386.386 0 0 1-.261.357.377.377 0 0 1-.41-.079l-.37-.37a1.6 1.6 0 0 0-2.254 0l-.926.926a1.594 1.594 0 0 0 0 2.255l.369.369a.387.387 0 0 1 .068.438.372.372 0 0 1-.345.235h-.526A1.6 1.6 0 0 0 2 9.842v1.315a1.6 1.6 0 0 0 1.594 1.594h.525a.386.386 0 0 1 .357.261.375.375 0 0 1-.079.41l-.37.37a1.6 1.6 0 0 0 0 2.254l.927.927a1.6 1.6 0 0 0 2.254 0l.369-.369a.387.387 0 0 1 .438-.068.374.374 0 0 1 .235.345v.525A1.6 1.6 0 0 0 9.842 19h1.315a1.6 1.6 0 0 0 1.594-1.594v-.525a.386.386 0 0 1 .261-.357.38.38 0 0 1 .41.079l.37.37a1.6 1.6 0 0 0 2.254 0l.927-.927a1.6 1.6 0 0 0 0-2.254l-.369-.369a.379.379 0 0 1-.076-.418l.008-.019a.374.374 0 0 1 .345-.235h.525A1.6 1.6 0 0 0 19 11.158V9.843a1.6 1.6 0 0 0-1.594-1.594zm.379 2.909a.38.38 0 0 1-.379.379h-.525a1.584 1.584 0 0 0-1.47.99l.562.229-.571-.209a1.588 1.588 0 0 0 .342 1.735l.37.369a.381.381 0 0 1 0 .537l-.927.926a.38.38 0 0 1-.536 0l-.371-.372a1.616 1.616 0 0 0-2.744 1.137v.525a.38.38 0 0 1-.379.379H9.842a.38.38 0 0 1-.379-.379v-.525a1.613 1.613 0 0 0-2.745-1.136l-.369.37a.379.379 0 0 1-.537 0l-.927-.927a.381.381 0 0 1 0-.536l.372-.371a1.616 1.616 0 0 0-1.137-2.744h-.526a.38.38 0 0 1-.379-.379V9.842a.38.38 0 0 1 .379-.379h.525a1.616 1.616 0 0 0 1.136-2.745l-.37-.37a.377.377 0 0 1-.111-.268.373.373 0 0 1 .111-.268l.926-.926a.38.38 0 0 1 .536 0l.371.372A1.616 1.616 0 0 0 9.463 4.12v-.526a.38.38 0 0 1 .379-.379h1.315a.38.38 0 0 1 .379.379v.525a1.616 1.616 0 0 0 2.745 1.137l.369-.37a.38.38 0 0 1 .537 0l.926.927a.378.378 0 0 1 0 .535l-.372.371a1.616 1.616 0 0 0 1.139 2.744h.525a.38.38 0 0 1 .379.379v1.315z" class="cls-1" data-name="Path 14"/>
        <path id="Path_15" d="M14.564 10.667a3.9 3.9 0 1 0 3.9 3.9 3.9 3.9 0 0 0-3.9-3.9zm0 6.333A2.436 2.436 0 1 1 17 14.564 2.438 2.438 0 0 1 14.564 17z" class="cls-1" data-name="Path 15" transform="translate(-4.064 -4.064)"/>
    </g>
</svg>
