<svg xmlns="http://www.w3.org/2000/svg" width="61.912" height="56.556" viewBox="0 0 61.912 56.556">
    <defs>
        <style>
            .cls-1{fill:#fff}
        </style>
    </defs>
    <g id="Group_28" data-name="Group 28" transform="translate(-3344.253 -141)">
        <g id="Group_27" data-name="Group 27" transform="translate(3344.253 141)">
            <path id="Path_26" d="M128.812 110.882a11.621 11.621 0 0 0-6.874-3.407c.023-.393.035-.786.035-1.176a19.979 19.979 0 0 0-39.661-3.424 14.018 14.018 0 0 0 1.96 27.9c.172 0 .35 0 .557-.012.165.008.32.012.474.012h8.171a1.167 1.167 0 0 0 0-2.333H85.3c-.127 0-.259 0-.4-.012h-.116c-.2.008-.36.013-.512.013a11.684 11.684 0 0 1-.855-23.337l.955-.069.119-.95a17.645 17.645 0 0 1 35.15 2.215 17.93 17.93 0 0 1-.127 2.115l-.153 1.28 1.289.024a9.361 9.361 0 0 1-.18 18.721 9.59 9.59 0 0 1-.69-.026l-.089-.007-.088.007c-.216.017-.4.025-.575.025h-8.344a1.167 1.167 0 1 0 0 2.333h8.344c.208 0 .428-.008.671-.026.261.017.52.026.772.026a11.695 11.695 0 0 0 8.343-19.891z" class="cls-1" data-name="Path 26" transform="translate(-70.253 -86.322)"/>
            <path id="Path_27" d="M218.175 222.113l-9.028-9.028-9.028 9.028a1.167 1.167 0 0 0 1.65 1.65l6.212-6.212v29.8a1.167 1.167 0 1 0 2.333 0v-29.8l6.212 6.212a1.167 1.167 0 0 0 1.65-1.65z" class="cls-1" data-name="Path 27" transform="translate(-178.19 -191.959)"/>
        </g>
    </g>
</svg>
